#!OML:ASF H:\MichaelJackson\Top Level 1\Subject 1\Session 1\male.ASF
:FULLY-SPECIFIED
:DEGREES
702
root 5.04743 16.8395 -3.48097 8.26809 -2.04595 3.70302
lowerback 4.55426 0.786797 -7.06027
upperback 4.21404 0.83912 0.257226
thorax 1.71228 0.245115 4.20112
lowerneck -12.7695 -1.70302 1.61556
upperneck 39.1628 -2.32455 -2.00735
head 16.0177 -1.00227 -1.55405
rclavicle 8.19987e-015 1.5704e-014
rhumerus -16.2297 41.4845 -85.529
rradius 134.094
rwrist -20.4076
rhand -44.5944 -61.3588
rfingers 7.12502
rthumb -17.3934 90.6006
lclavicle 8.19987e-015 1.5704e-014
lhumerus -57.7787 -8.17999 91.7566
lradius 47.4888
lwrist 6.98831
lhand -0.767266 11.0143
lfingers 7.12502
lthumb 24.8553 39.4186
rfemur -54.6458 -0.256251 15.9174
rtibia 80.9731
rfoot 12.3762 14.8434
rtoes 36.1566
lfemur -26.6396 10.1165 -30.2604
ltibia 40.1051
lfoot -15.6152 -7.14237
ltoes 33.3695
703
root 5.04665 16.7654 -3.4301 7.99724 -1.82455 4.136
lowerback 4.74329 0.763672 -7.5435
upperback 4.26141 0.7815 0.118331
thorax 1.66408 0.207232 4.32852
lowerneck -12.6507 -1.70982 1.64763
upperneck 39.186 -2.38779 -1.88903
head 16.001 -1.0075 -1.5172
rclavicle -6.4605e-016 -1.23246e-014
rhumerus -16.1013 41.4093 -85.5881
rradius 134.042
rwrist -20.2899
rhand -44.5846 -61.3639
rfingers 7.12502
rthumb -17.3839 90.6066
lclavicle -6.4605e-016 -1.23246e-014
lhumerus -57.3287 -8.25967 91.6477
lradius 47.4319
lwrist 6.80509
lhand -2.06949 10.8617
lfingers 7.12502
lthumb 23.6067 39.4326
rfemur -54.9699 -0.160984 15.4283
rtibia 80.4639
rfoot 13.7201 14.2964
rtoes 36.7178
lfemur -26.506 10.774 -30.7293
ltibia 40.8807
lfoot -16.6186 -8.07304
ltoes 34.5691
704
root 5.04671 16.6987 -3.37781 7.79158 -1.61866 4.52613
lowerback 4.84835 0.749383 -7.96352
upperback 4.2991 0.743002 -0.0157422
thorax 1.65109 0.179341 4.42536
lowerneck -12.5166 -1.72595 1.66259
upperneck 39.244 -2.45729 -1.77577
head 15.9989 -1.01793 -1.48106
rclavicle -8.44835e-016 -4.37326e-015
rhumerus -15.9824 41.3587 -85.6544
rradius 133.985
rwrist -20.2705
rhand -44.5379 -61.3503
rfingers 7.12502
rthumb -17.3389 90.5969
lclavicle -8.44835e-016 -4.37326e-015
lhumerus -56.9105 -8.30512 91.5359
lradius 47.424
lwrist 6.56198
lhand -3.47129 10.615
lfingers 7.12502
lthumb 22.2616 39.3529
rfemur -55.1155 -0.0307927 14.9851
rtibia 79.6697
rfoot 15.2166 13.7597
rtoes 37.5446
lfemur -26.4533 11.3736 -31.1359
ltibia 41.6942
lfoot -17.4867 -8.98499
ltoes 35.6204
705
root 5.04811 16.6401 -3.32455 7.64691 -1.42188 4.85931
lowerback 4.88153 0.738243 -8.30075
upperback 4.32632 0.716942 -0.141233
thorax 1.66608 0.158703 4.48456
lowerneck -12.3752 -1.74972 1.65923
upperneck 39.3334 -2.53199 -1.66406
head 16.0116 -1.03288 -1.4437
rclavicle 4.96962e-015 -9.54166e-015
rhumerus -15.8798 41.3314 -85.728
rradius 133.924
rwrist -20.3206
rhand -44.4607 -61.3342
rfingers 7.12502
rthumb -17.2647 90.5873
lclavicle 4.96962e-015 -9.54166e-015
lhumerus -56.5361 -8.322 91.4327
lradius 47.4707
lwrist 6.28619
lhand -4.87993 10.3002
lfingers 7.12502
lthumb 20.9088 39.1934
rfemur -55.0897 0.12414 14.5959
rtibia 78.6691
rfoot 16.7139 13.2391
rtoes 38.6961
lfemur -26.4807 11.9045 -31.4708
ltibia 42.5278
lfoot -18.1847 -9.87404
ltoes 36.5305
706
root 5.05094 16.5888 -3.27105 7.55191 -1.23295 5.1321
lowerback 4.85846 0.73058 -8.55039
upperback 4.3466 0.703456 -0.258496
thorax 1.70359 0.145572 4.50295
lowerneck -12.2315 -1.78046 1.64386
upperneck 39.4445 -2.61404 -1.55113
head 16.0355 -1.05205 -1.4052
rclavicle 7.95139e-015 1.31198e-014
rhumerus -15.8062 41.3242 -85.8153
rradius 133.866
rwrist -20.39
rhand -44.3658 -61.3203
rfingers 7.12502
rthumb -17.1733 90.5813
lclavicle 7.95139e-015 1.31198e-014
lhumerus -56.2093 -8.33292 91.3517
lradius 47.573
lwrist 6.02991
lhand -6.19616 9.94275
lfingers 7.12502
lthumb 19.6438 38.9703
rfemur -54.9039 0.295321 14.2552
rtibia 77.5901
rfoot 17.9337 12.7987
rtoes 39.8378
lfemur -26.572 12.3563 -31.7313
ltibia 43.3636
lfoot -18.7117 -10.7305
ltoes 37.3086
707
root 5.05506 16.5435 -3.21795 7.49035 -1.0485 5.36176
lowerback 4.80146 0.728795 -8.72997
upperback 4.36301 0.703522 -0.372399
thorax 1.75406 0.140386 4.48517
lowerneck -12.0938 -1.82077 1.61574
upperneck 39.5723 -2.71018 -1.42986
head 16.07 -1.07739 -1.36342
rclavicle -1.06847e-014 -1.90833e-014
rhumerus -15.7687 41.316 -85.9165
rradius 133.807
rwrist -20.4284
rhand -44.2773 -61.3223
rfingers 7.12502
rthumb -17.0881 90.5908
lclavicle -1.06847e-014 -1.90833e-014
lhumerus -55.9375 -8.36956 91.3062
lradius 47.7303
lwrist 5.85527
lhand -7.32583 9.55267
lfingers 7.12502
lthumb 18.5574 38.6875
rfemur -54.5788 0.468083 13.9417
rtibia 76.5741
rfoot 18.671 12.4474
rtoes 40.6735
lfemur -26.6961 12.7187 -31.9365
ltibia 44.184
lfoot -19.101 -11.5233
ltoes 37.9186
708
root 5.05973 16.5039 -3.16549 7.44172 -0.863624 5.57556
lowerback 4.72983 0.737779 -8.8713
upperback 4.38302 0.721224 -0.49075
thorax 1.81401 0.144455 4.44074
lowerneck -11.959 -1.873 1.5856
upperneck 39.7005 -2.82625 -1.30148
head 16.1057 -1.11011 -1.32127
rclavicle -1.49089e-015 3.73715e-014
rhumerus -15.7756 41.3002 -86.0379
rradius 133.76
rwrist -20.4279
rhand -44.2253 -61.3048
rfingers 7.12502
rthumb -17.0381 90.5776
lclavicle -1.49089e-015 3.73715e-014
lhumerus -55.7182 -8.46739 91.3043
lradius 47.9298
lwrist 5.80665
lhand -8.20232 9.20662
lfingers 7.12502
lthumb 17.7142 38.4197
rfemur -54.1363 0.617979 13.6412
rtibia 75.7411
rfoot 18.8259 12.1856
rtoes 40.891
lfemur -26.8219 12.9826 -32.1111
ltibia 44.966
lfoot -19.3724 -12.2377
ltoes 38.3693
